<?xml version="1.0" encoding="UTF-8"?>
<svg id="Layer_2" xmlns="http://www.w3.org/2000/svg" version="1.1" viewBox="0 0 595.28 841.89">
  <!-- Generator: Adobe Illustrator 29.0.1, SVG Export Plug-In . SVG Version: 2.1.0 Build 192)  -->
  <defs>
    <style>
      .st0 {
        fill: #231f20;
      }

      .st1 {
        stroke-width: 5px;
      }

      .st1, .st2 {
        fill: none;
        stroke: #231f20;
        stroke-miterlimit: 10;
      }

      .st2 {
        stroke-width: 11px;
      }
    </style>
  </defs>
  <path class="st0" d="M478.75,419.12c-20.31,0-28.67-15.93-30.26-24.36l10.81-2.03c.31,1.54,3.56,15.39,19.45,15.39,22.64,0,23-31.75,23.01-33.1v-78.52c0-111.14-90.42-201.56-201.56-201.56s-201.56,90.42-201.56,201.56c0,13.89,3.35,55.93,41.75,75.31l.02-.05c8.95,4.06,20.37,3.86,29.78-.4l-17.75-13c-6.5-4.75-12.67-17.85-11.75-31.56.88-13.16,8.18-24.11,20.54-30.82,12.92-7.02,26.3-8.17,38.72-3.35,13.21,5.13,24.05,16.81,29.02,31.24,4.82,14.01-.98,34.49-13.8,48.69-6.9,7.65-20.66,18.8-42.06,18.81-4.86,0-10.12-.58-15.78-1.9-51.39-12.01-69.7-55.9-69.7-92.98,0-117.21,95.36-212.56,212.56-212.56s212.56,95.36,212.56,212.56v78.53c0,15.25-7.11,44.1-34.01,44.1ZM171.7,320.66c3.81,0,7.68,1,11.31,3.02,8.06,4.5,15.84,15.01,13.52,31.02-1.49,10.28-8.31,19.44-18.69,25.12-.19.11-.39.21-.58.31,14.95-1.33,24.66-9.32,29.75-14.95,11.55-12.79,14.58-28.99,11.57-37.74-3.93-11.41-12.38-20.59-22.61-24.57-9.3-3.62-19.5-2.66-29.48,2.76-9.2,5-14.18,12.36-14.82,21.89-.11,1.71-.08,3.39.07,5.01,1.42-2.3,3.34-4.55,5.86-6.67,4.12-3.45,9.06-5.21,14.11-5.21ZM171.72,331.67c-2.53,0-4.98.88-7.06,2.63-8.74,7.33-4.61,16.08-4.11,17.05l10.54,19.58c.5-.24.99-.49,1.47-.76,7.43-4.06,12.08-10.12,13.08-17.05,1.52-10.49-3.13-17.13-7.99-19.84-1.94-1.08-3.96-1.62-5.93-1.62Z"/>
  <path class="st0" d="M300.19,763.9c-117.21,0-212.56-95.36-212.56-212.56v-74.52h11v74.52c0,111.14,90.42,201.56,201.56,201.56s201.56-90.42,201.56-201.56v-95.97h11v95.97c0,117.21-95.36,212.56-212.56,212.56Z"/>
  <g>
    <path class="st0" d="M172.51,485.02c-8.9-18.51-13.88-39.24-13.88-61.11,0-33.3,11.56-63.95,30.88-88.15-.75-1.13-1.53-2.23-2.37-3.28-1.04-1.3-2.14-2.54-3.31-3.72-.51-.52-1.04-1.02-1.59-1.51-21.62,26.33-34.61,60-34.61,96.65,0,24.61,5.87,47.88,16.26,68.49,3.09-2.19,6.1-4.47,8.62-7.38Z"/>
    <path class="st0" d="M342.23,277.83s-38.36-8.44-79.04-1.94c-21.03,5.26-40.34,14.89-56.91,27.87.66.19,1.3.43,1.91.71,2.8,1.27,5.23,3.8,6.47,6.72,19.74-15.01,43.51-24.97,69.38-27.93-13.96,6.84-26.54,16.45-36.92,28.37-18.55,21.31-28.77,48.63-28.77,76.92,0,32.38,13.2,61.73,34.49,82.96,3.36-1.93,7.04-3.34,10.39-5.26-20.83-19.4-33.88-47.05-33.88-77.7,0-42.28,25.47-79.9,62.53-96.78h0s24.48-12.75,50.35-13.94Z"/>
    <path class="st0" d="M450.64,397.58c-3.22,1.72-6.74,3-9.64,3.94l-.39,2.67c-7.62,51.63-52.78,90.56-105.05,90.56-12.86,0-25.19-2.3-36.6-6.5-2.07,2.71-4.21,5.37-6.4,7.98-.32.38-.66.68-1.02.93,13.6,5.53,28.46,8.59,44.03,8.59,28.29,0,55.6-10.22,76.92-28.77,11.92-10.38,21.53-22.97,28.37-36.92-6.78,59.43-50.51,107.81-107.59,121.52-.17,1-.62,1.98-1.47,2.82-4.09,4.06-8.4,8.06-13.38,10.98,75.57-9.03,134.35-73.51,134.35-151.47,0-6.55-.42-13.15-1.25-19.62l-.86-6.71Z"/>
    <path class="st0" d="M246.49,564.5c4.02-1.68,8.02-3.58,12.06-5.28-25.68-7.92-48.27-22.96-65.44-42.81-2.83,2.35-5.74,4.6-8.85,6.56,16.12,18.84,36.75,33.71,60.19,42.94.53-.57,1.2-1.07,2.04-1.41Z"/>
  </g>
  <path class="st0" d="M176.34,266.67c-11.99,0-23.9-4.17-34.25-12.24-30.4-23.71-26.9-63.68-7.72-90.91l8.99,6.33c-4.89,6.94-10.17,17.75-12.12,29.67,1.77,21.29,15.33,30.52,27.49,32.04,11.7,1.47,22.34-3.79,25.27-12.5,9.02-26.77-6.06-35.98-6.71-36.36l-12.43-6.9,13.89-3.23c11.92-2.8,27.02,2.05,36.73,11.81,10.94,11,14.57,27,10.22,45.04-3.75,15.54-16.05,28.69-32.1,34.3-5.67,1.98-11.48,2.95-17.28,2.95ZM138.57,235.12c2.65,3.74,6.03,7.31,10.28,10.63,12.35,9.63,27.35,12.4,41.14,7.58,12.57-4.39,22.16-14.54,25.04-26.49,4.38-18.19-1.57-28.91-7.33-34.71-4.36-4.38-9.71-7.11-14.84-8.43,4.84,8.41,7.48,21.31,1.57,38.86-4.67,13.87-19.91,22.06-37.07,19.91-6.15-.77-12.82-3.11-18.79-7.35Z"/>
  <path class="st0" d="M210.19,743.93c-13.21-7.48-32.86-20.51-51.48-40.14-1.56-1.64-3.08-3.31-4.57-4.98l-.3.25c-2.59-3.11-5.04-6.24-7.33-9.39-14.21-18.1-24.55-37.92-30.82-59.13-18.73-63.36,2.73-100.12,23.52-125.08,7.09-8.51,15.1-15.11,22.85-21.49,16.58-13.65,30.89-25.44,31.54-52.23l.39-16.28,9.56,13.18c.85,1.18,20.78,29.27,9.49,66.61-6.13,20.26-21.38,31.54-36.13,42.45-12.94,9.57-26.32,19.47-35.28,35.9-6.79,12.44-24.68,55.14,12.34,107.58,21.64,28.16,48,45.43,61.66,53.17l-5.42,9.57ZM201.89,450.39c-5.69,19.71-19.45,31.04-32.85,42.07-7.35,6.05-14.96,12.32-21.39,20.04-17.34,20.82-33.31,47.79-26.68,91.64,1.83-16.58,7.26-28.96,10.99-35.8,10.13-18.57,25.15-29.68,38.4-39.48,14.53-10.75,27.07-20.03,32.14-36.79,5.06-16.74,2.77-31.41-.61-41.67Z"/>
  <path class="st0" d="M294.05,763.91c-46.44,0-118.72-51.1-132.97-106.49-12.82-49.85-1.68-85.61,36.1-115.96,3.61-2.9,7.03-5.3,10.32-7.31.41-6.82,2.52-23.04,13.01-39.37,10.45-16.27,24.7-23.86,37.26-30.56,10.2-5.43,19.83-10.57,26.17-19.66,12.41-17.79-3.04-33.65-3.71-34.32l-13.41-13.45,18.51,4.19c16.03,3.64,27.59,16.21,31.73,34.48,4.96,21.89-1.7,53.19-27.75,73.75-21.26,16.78-36.2,20.62-49.37,24.01-11.79,3.03-21.97,5.65-35.87,16.81-34.41,27.64-44.08,58.94-32.33,104.64,13,50.57,81.54,98.98,123.25,98.22l.2,11c-.38,0-.76.01-1.14.01ZM298.68,421.56c2.14,8.66,1.49,18.95-5.72,29.29-7.86,11.26-19.12,17.27-30.02,23.07-11.94,6.36-24.28,12.94-33.18,26.8-6.53,10.17-9.31,20.4-10.49,27.43,6.29-2.59,12.16-4.1,17.92-5.58,12.72-3.27,25.86-6.65,45.3-21.99,22.28-17.59,28.03-44.16,23.84-62.69-1.46-6.47-4.08-12-7.64-16.33Z"/>
  <path class="st0" d="M327.9,759c-13.43,0-27.6-1.68-41.27-5.04-29.49-7.25-52.4-20.97-64.51-38.63-19.34-28.21-42.28-71.59-18.31-122.39,14.53-30.8,50.88-39.39,77.42-45.67,12.09-2.86,23.51-5.56,28.49-9.43,18.63-14.49,15.94-33.03,15.21-36.6l-5.53-27.1,15.48,22.92c.78,1.15,18.87,28.48,7.16,56.92-12.89,31.3-43.37,48.44-95.92,53.93-10.71,1.12-20.35,6.42-27.15,14.94-8.5,10.64-12.09,25.74-10.1,42.51,4.3,13.85,11.72,28.3,22.33,43.76,10.43,15.21,31.6,27.67,58.06,34.17,24.87,6.11,51.31,6.33,70.75.6l3.11,10.55c-10.34,3.05-22.44,4.58-35.21,4.58ZM333.78,523.24c-2.92,8.14-8.37,16.33-17.29,23.27-6.88,5.35-18.85,8.18-32.72,11.46-25.72,6.08-57.73,13.64-70,39.66-4,8.48-6.73,16.92-8.17,25.42,1.42-2.49,3.01-4.86,4.78-7.07,8.65-10.83,20.94-17.58,34.6-19.01,48.76-5.1,75.55-19.65,86.89-47.18,3.82-9.29,3.57-18.66,1.91-26.54Z"/>
  <path class="st0" d="M365.3,701.94c-44.34,0-56.06-24.36-60.37-33.29-3.59-7.45-5.74-21.93-.01-38.24,3.97-11.31,13.14-26.91,34.25-37.02,12.99-6.22,24.91-9.32,35.42-12.04,19.09-4.96,31.7-8.23,38.39-26.27l4.46-12.02,5.64,11.52c.53,1.09,12.87,26.95-2.24,52.69-6.87,11.71-19.49,17.6-31.69,23.3-14.57,6.81-28.33,13.24-32.04,28.8-2.04,8.59-.25,15.5,5.32,20.54,7.76,7.02,21.53,9.46,31.66,7.93,24.31-5.2,49.08-20.79,70.07-44.16,17.87-19.9,31.76-44.38,35.39-62.38l10.78,2.17c-4.05,20.09-18.61,45.98-37.99,67.56-15.11,16.83-39.03,37.71-69.93,46.12-1.85.62-3.86,1.1-5.99,1.45-1.11.24-2.22.46-3.35.66-10.45,1.88-19.66,2.69-27.77,2.69ZM416.67,571.43c-9.5,12.82-23.56,16.47-39.31,20.55-10.03,2.6-21.4,5.55-33.43,11.32-17.71,8.48-25.34,21.4-28.62,30.74-4.29,12.23-3.25,24.03-.46,29.83,3.62,7.51,11.92,24.74,43.59,26.88-1.18-.83-2.31-1.72-3.37-2.68-6.04-5.46-12.44-15.31-8.65-31.25,4.94-20.74,22.55-28.96,38.09-36.22,11.17-5.22,21.72-10.15,26.86-18.91,6.45-10.98,6.6-22.16,5.31-30.26Z"/>
  <path class="st0" d="M111.94,519.09l5.35-24.4c3.27-14.91-6.87-27.85-17.61-41.55-4.71-6.01-9.58-12.23-13.14-18.59-12.62-22.57,4.67-52.7,5.41-53.97l8.3-14.22,1.91,16.36c1.83,15.67,8.96,23.92,17.21,33.47,6.62,7.66,14.13,16.35,19.45,29.72,9.74,24.47-10.91,52.11-11.79,53.28l-15.1,19.9ZM95.44,400.43c-2.68,8.75-4.24,19.91.7,28.75,3.14,5.62,7.54,11.23,12.2,17.18,7.19,9.18,14.99,19.14,18.57,30.32,3.16-8.03,5.2-17.91,1.7-26.69-4.64-11.66-11.21-19.25-17.56-26.6-5.77-6.68-11.67-13.5-15.62-22.96Z"/>
  <path class="st0" d="M445.04,310.68c4.68,2.54,9.96,3.82,14.62,3.01,9.3-1.73,14.84-10.66,14.09-19.87-.39-8.39-4.96-17.5-12.43-21.22-2.77-1.43-6.02-1.96-9.08-2.36-9.99-1.01-18.83,4.32-24.57,12.21,0,0-9.52-5.51-9.52-5.51,2.96-5.67,7.14-10.23,12.43-13.77,10.31-7.07,24.39-7.41,35.53-1.96,6.2,3.19,11.04,8.63,13.91,14.83,5.17,11.16,4.97,25.67-3.73,34.98-9.08,9.37-22.65,8.95-31.25-.34h0Z"/>
  <path class="st0" d="M391.26,304.89c1.76-2.26,3.03-4.73,3.12-7-.02-7.43-8.33-10.84-14.12-6.6-7.23,4.94-6.09,18.56.1,23.68,12.08,9.47,29.79,2.43,34.85-11.4,5.52-13.88-.19-28.42-13.77-34.83-16.76-8.76-39.11-.17-49.13,15-5.64,8.3-7.59,18.33-7.3,28.35,0,0,.22,7.03.22,7.03l-6.33-1.26s-1.02,0-1.02,0c-8.36.16-17.66,1.92-23.96,7.54-2.56,2.22-4.35,5.17-5.56,8.31-1.94,4.56-3,9.87-2.59,14.76.58,7.28,4.46,13.98,10.45,18.15,2.99,2.07,6.23,3.42,9.97,3.52,5.19.19,10.83-1.84,14.4-5.65,3.2-3.23,4.87-7.87,4.51-12.39-.41-7.62-7.07-10.97-14.08-10.76,7.24-5.11,17.34-2.45,21.53,5.64,2.07,4,2.72,8.55,2.17,12.97-1.76,13.64-15.44,22.91-28.61,22.93-13.19.27-25.44-9.05-30.81-20.82-4.96-10.62-4.22-23.2.52-33.7,6.47-16.58,24.66-23.12,41.22-21.77,1.11.08,1.94.17,3.11.34,0,0-6.11,5.77-6.11,5.77-1.28-15.27,3.26-31.71,14.14-42.9,13.45-14.15,35.85-21.17,54.42-13.69,3.65,1.44,7.23,3.43,10.43,5.69,9.46,6.87,15.43,17.72,15.62,29.46.69,24.34-21.88,44.77-45.85,35.49-15.09-5.25-19.9-25.58-9.83-37.57,5.72-6.41,17.24-7.51,22.74-.23,4.49,5.65,2.39,13.6-4.44,15.97h0Z"/>
  <path class="st0" d="M353.37,361.15c2.6,5.73,7.05,10.92,12.82,13.52,7.1,3.37,15.95.26,22.41-3.8,0,0,.48-.32.48-.32l8.06,1.9c.39.63,1.22,1.89,1.65,2.5,6.36,9.03,15.42,17.46,26.42,19.61,15.28,3.03,32.44-6.18,37.43-21.08,3.43-10.43.15-23.88-9.83-29.4-5.9-3.36-14.72-3.52-20.16.75-4.46,3.39-7.5,10.53-4.62,15.73,2.17,3.19,6.04,5.85,9.64,6.19,3.97.41,7.36-2.51,10.28-5.51,0,1.25-.12,2.54-.48,3.78-1.97,7.97-10.57,11.19-17.86,8.43-16.64-6.03-16.1-26.76-3.85-37.03,9.17-7.65,22.3-8.14,32.65-2.77,10.2,5.31,16.63,16.09,17.86,27.25,2.85,22.66-15.47,43.05-37.36,46.3-21.77,3.64-40.06-9.7-50.5-27.78-.33-.59-.61-1.08-.99-1.83l8.06,1.9c-.63.44-1.13.75-1.73,1.13-13.89,8.49-29.59,9.52-41.83-2.63-3.6-3.54-6.47-7.66-8.55-12.24,0,0-.25-.59-.25-.59l10.24-4.01h0Z"/>
  <path class="st0" d="M483.89,294.87l-10.65-2.76c2-7.72,11.6-21.83,33.65-19.91l-.95,10.96c-18.39-1.6-21.91,11.17-22.05,11.71Z"/>
  <path class="st0" d="M164.48,384.55c-1.8,0-3.62-.1-5.49-.3l.54-4.97c22.36,2.45,39.16-12.05,43.63-26.93,4.82-16.07-.98-26.91-7.41-31.31-8.37-5.73-19.79-11.04-33.87-1.17-14.1,9.89-4.03,32.79-3.92,33.02l-4.56,2.06c-.49-1.09-11.88-26.9,5.61-39.17,18.72-13.13,34.41-2.4,39.56,1.13,7.82,5.35,14.97,18.22,9.37,36.88-4.67,15.57-21.19,30.77-43.47,30.77Z"/>
  <path class="st0" d="M118.81,609.44c-4.3-53.02,24.56-77.86,47.75-97.83,6.89-5.93,13.4-11.54,18.57-17.39,21.98-24.89,11.67-61.28,11.56-61.64l4.8-1.4c.47,1.6,11.18,39.42-12.61,66.36-5.4,6.11-12.03,11.83-19.06,17.87-23.5,20.23-50.12,43.15-46.03,93.63l-4.98.4Z"/>
  <path class="st0" d="M205.53,545.1l-3.29-3.76c8.62-7.56,18.81-15.65,29.6-24.21,28.39-22.54,60.56-48.09,65.96-66.56,7.08-24.22-7.27-36.69-7.89-37.21l3.21-3.84c.72.6,17.51,14.98,9.48,42.45-5.84,20-37.26,44.94-67.65,69.07-10.74,8.53-20.88,16.58-29.41,24.05Z"/>
  <path class="st0" d="M200.34,657.25c-.16-2.11-3.49-51.84,29.18-70.28,15.82-8.93,28.88-11.77,41.51-14.51,13.34-2.9,25.94-5.64,41.85-15.08,22.73-13.5,16.56-53.94,16.5-54.35l4.94-.79c.29,1.8,6.78,44.21-18.88,59.44-16.6,9.86-30.2,12.81-43.34,15.67-12.83,2.79-24.95,5.42-40.11,13.98-29.93,16.9-26.69,65.07-26.65,65.55l-4.99.37Z"/>
  <path class="st0" d="M369.56,696.66c-1.1-.11-27.05-2.94-37.41-24.55-9.68-20.19-3.59-42.32,15.15-55.06,4.77-3.24,11.41-5.83,19.11-8.82,19.35-7.52,43.44-16.88,48.96-42.24l4.88,1.06c-6.09,27.99-32.65,38.31-52.04,45.84-7.41,2.88-13.81,5.37-18.11,8.29-16.87,11.48-22.15,30.62-13.45,48.77,9.13,19.05,33.16,21.72,33.4,21.74l-.5,4.97Z"/>
  <path class="st2" d="M-754.47,376.76c21.08,9.56,49.89-1.74,52.96-22.84,3.28-22.59-17.36-34.38-29.96-23.83s-5.45,23.83-5.45,23.83c-8.85-6.47-19.4-38.13,8.17-53.11s52.21,2.46,59.91,24.85c7.71,22.39-16.68,69.79-65.19,58.45-48.51-11.34-65.45-52.58-65.45-87.62,0-114.36,92.71-207.06,207.06-207.06s207.06,92.71,207.06,207.06v78.53s0,38.6-28.51,38.6c-21.12,0-24.85-19.87-24.85-19.87"/>
  <path class="st2" d="M-799.47,476.81v74.52c0,114.36,92.71,207.06,207.06,207.06s207.06-92.71,207.06-207.06v-95.97"/>
  <path class="st2" d="M-557.04,500.25c-61.69,0-111.7-50.01-111.7-111.7,0-56.1,41.36-102.54,95.26-110.49-6.19-.8-12.51-1.21-18.92-1.21-81.22,0-147.06,65.84-147.06,147.06s65.84,147.06,147.06,147.06,147.06-65.84,147.06-147.06c0-6.41-.41-12.72-1.21-18.92-7.95,53.89-54.39,95.26-110.49,95.26Z"/>
  <path class="st2" d="M-753.73,166.68c-15.47,21.97-23.53,59.91,6.6,83.4,30.13,23.49,68.06,6.46,74.91-21.96,9.35-38.81-22.99-54.3-40.35-50.21,0,0,19.91,11.06,9.19,42.89-8.51,25.25-60.09,24-63.49-21.3"/>
  <path class="st2" d="M-679.69,739.14c-28.62-16.21-74.58-51.44-91.94-110.16-17.36-58.72.55-93.69,22.47-120s54.64-34.72,55.66-77.11c0,0,19.31,26.64,8.68,61.79s-50.81,40.34-70.98,77.32c-13.58,24.9-21.93,72.8,21.28,124.56"/>
  <path class="st2" d="M-597.51,758.4c-43.4.8-114.89-48.74-128.68-102.35-13.79-53.62,3.06-85.28,34.21-110.3,31.15-25.02,46.47-10.21,85.28-40.85,38.81-30.64,34.21-90.38-1.79-98.55,0,0,19.66,19.4,4.34,41.36-15.32,21.96-45.28,21.96-63.32,50.04-12.73,19.82-12.23,39.59-12.23,39.59"/>
  <path class="st2" d="M-531.03,749.15c-40.94,12.09-110.39-1.19-134.9-36.94-24.51-35.74-38.02-74.24-17.87-116.94,20.15-42.7,86.59-39.32,104.32-53.11s19.27-32,17.22-42.04c0,0,17.35,25.7,6.63,51.75-10.72,26.04-35.23,44.68-91.4,50.55-25.89,2.71-46.53,26.81-42.13,63.65"/>
  <path class="st2" d="M-387.65,582.37c-7.13,35.37-53.09,100.73-112.84,111.46s-75.57-13.79-82.21-27.57-4.6-50.55,31.66-67.91,64.85-9.7,76.6-41.36c0,0,11.74,24-2.04,47.49-13.79,23.49-56.68,21.45-64.34,53.62-7.66,32.17,31.66,39.83,49.24,33.72"/>
  <path class="st2" d="M-795.89,383.36s-16.6,28.43-5.36,48.51,36.77,39.15,31.32,64c0,0,19.77-26.05,11.06-47.91-11.49-28.85-33.45-33.96-37.02-64.6Z"/>
  <path class="st2" d="M-447.55,310.68s13.62,11.57,26.55,0c12.94-11.57,7.2-39.48-11.57-45.28-20.94-6.47-33.36,7.83-37.11,14.3"/>
  <path class="st2" d="M-501.34,304.89s6.81-4.43,4.43-11.23c-2.38-6.81-11.23-9.77-18.72-3.87-7.49,5.91-8.85,25.65,6.13,32.12,14.98,6.47,32-1.59,37.79-17.64,5.79-16.06,0-35.12-21.79-43.12s-61.96,7.66-59.57,51.23c0,0-26.89-3.06-36.43,16.34-9.53,19.4-2.38,37.11,11.91,44.94s34.04-1.36,34.89-17.36c.62-11.64-8.34-18.38-18.89-14.98"/>
  <path class="st2" d="M-544.35,363.15s5.05,12.89,17.64,17.31c12.6,4.43,26.38-5.45,26.38-5.45,0,0,12.26,23.15,33.87,26.04,21.62,2.89,39.22-11.94,43.06-27.57,4.77-19.4-5.65-35.39-26.89-37.62-17.87-1.87-24.17,18.89-18.38,27.4,4.96,7.3,18.21,12.43,24-2.04"/>
  <path class="st2" d="M-414.03,293.49s4.62-17.83,27.85-15.81"/>
  <path class="st1" d="M-736.91,353.91s-11.23-24.87,4.77-36.09,29.18-4.01,36.72,1.15c7.54,5.16,13.5,17.07,8.39,34.1s-23.65,31.18-46.3,28.7"/>
  <path class="st1" d="M-693.51,431.87s11.06,37.79-12.09,64c-23.15,26.21-71.15,46.3-65.7,113.36"/>
  <path class="st1" d="M-601.09,411.45s16.34,13.62,8.68,39.83c-7.66,26.21-64.1,63.72-96.31,91.95"/>
  <path class="st1" d="M-689.76,657.06s-3.75-50.04,27.91-67.91,51.57-10.72,83.4-29.62c24.5-14.54,17.69-56.89,17.69-56.89"/>
  <path class="st1" d="M-522.79,694.17s-25.53-2.55-35.4-23.15-2.21-40.68,14.3-51.91c16.51-11.23,61.11-15.83,69.11-52.6"/>
</svg>